<?xml version="1.0" encoding="iso-8859-1"?>
<!-- Generator: Adobe Illustrator 19.0.0, SVG Export Plug-In . SVG Version: 6.00 Build 0)  -->
<svg version="1.1" id="Capa_1" xmlns="http://www.w3.org/2000/svg" xmlns:xlink="http://www.w3.org/1999/xlink" x="0px" y="0px"
	 viewBox="0 0 512.001 512.001" style="enable-background:new 0 0 512.001 512.001;" xml:space="preserve">
<path style="fill:#BABABA;" d="M453.319,85.098c0-18.661-15.129-33.788-33.79-33.788h-21.994c-10.483,0-281.109,0-291.552,0H77.096
	c-4.834,0-38.687,0-43.307,0C15.13,51.31,0,66.437,0,85.098v385.738c0,9.658,4.059,18.362,10.556,24.52h408.973v9.269h59.186
	c14.542,0,26.938-9.188,31.702-22.076C514.365,472.114,515.762,492.071,453.319,85.098z"/>
<path style="fill:#A8A8A8;" d="M473.952,470.836v-251.26L453.319,85.098c0-18.661-15.129-33.788-33.79-33.788h-7.55h-14.443H382.47
	c-10.269,0-271.917,0-276.487,0H97.73H77.096h-2.473h-20.2c-18.659,0-33.789,15.127-33.789,33.788v385.738
	c0,9.658,4.059,18.362,10.556,24.52h388.34v9.269h20.633C458.823,504.625,473.952,489.498,473.952,470.836z"/>
<path style="fill:#E6E6E6;" d="M419.529,51.31h-28.184c-11.895,0-272.251,0-285.362,0H77.096c-14.449,0-28.853,0-43.307,0
	C15.13,51.31,0,66.437,0,85.098v385.738c0,18.662,15.13,33.789,33.789,33.789h385.739c18.661,0,33.79-15.127,33.79-33.789V85.098
	C453.319,66.437,438.189,51.31,419.529,51.31z"/>
<path style="fill:#CCCBCA;" d="M20.633,470.836V85.098c0-18.661,15.13-33.788,33.789-33.788h-0.433h-20.2
	C15.13,51.31,0,66.437,0,85.098v385.738c0,18.662,15.13,33.789,33.789,33.789h20.633C35.764,504.625,20.633,489.498,20.633,470.836z
	"/>
<path style="fill:#EA473B;" d="M419.529,51.31h-20.962c-5.592,0-287.962,0-292.584,0H77.096c-20.401,0-16.165,0-43.307,0
	C15.13,51.31,0,66.437,0,85.098v86.796h453.319V85.098C453.319,66.437,438.189,51.31,419.529,51.31z"/>
<path style="fill:#D63322;" d="M20.633,85.098c0-18.661,15.13-33.788,33.789-33.788h-0.433h-20.2C15.13,51.31,0,66.437,0,85.098
	v86.796h20.633V85.098z"/>
<g>
	<path style="fill:#414356;" d="M361.837,81.518v7.034c0,6.838-5.542,7.222-12.38,7.222h-4.127c-6.837,0-12.38-0.384-12.38-7.222
		v-7.033c-6.546,4.568-10.833,12.15-10.833,20.738c0,13.96,11.317,25.276,25.276,25.276c13.96,0,25.276-11.316,25.276-25.276
		C372.669,93.668,368.382,86.086,361.837,81.518z"/>
	<path style="fill:#414356;" d="M233.91,81.518v7.034c0,6.838-5.542,6.19-12.38,6.19h-4.127c-13.338,0-12.38-0.876-12.38-13.223
		c-6.546,4.568-10.833,12.15-10.833,20.738c0,13.96,11.317,25.276,25.276,25.276c13.96,0,25.276-11.316,25.276-25.276
		C244.742,93.668,240.455,86.086,233.91,81.518z"/>
	<path style="fill:#414356;" d="M105.983,81.518v7.034c0,6.838-5.542,7.222-12.38,7.222h-4.127c-6.837,0-12.38-0.384-12.38-7.222
		v-7.033c-6.546,4.568-10.833,12.15-10.833,20.738c0,13.96,11.317,25.276,25.276,25.276c13.96,0,25.276-11.316,25.276-25.276
		C116.815,93.668,112.528,86.086,105.983,81.518z"/>
</g>
<g>
	<path style="fill:#2F3242;" d="M343.782,102.256c0-0.479,0.018-0.953,0.044-1.425c-6.127-0.743-10.877-5.952-10.877-12.28v-7.033
		c-6.546,4.568-10.833,12.15-10.833,20.738c0,13.96,11.317,25.276,25.276,25.276c3.877,0,7.549-0.875,10.833-2.436
		C349.687,121.039,343.782,112.338,343.782,102.256z"/>
	<path style="fill:#2F3242;" d="M215.856,102.256c0-0.479,0.018-0.953,0.044-1.425c-6.127-0.743-10.877-5.952-10.877-12.28v-7.033
		c-6.546,4.568-10.833,12.15-10.833,20.738c0,13.96,11.317,25.276,25.276,25.276c3.877,0,7.549-0.875,10.833-2.436
		C221.76,121.039,215.856,112.338,215.856,102.256z"/>
	<path style="fill:#2F3242;" d="M87.929,102.256c0-0.479,0.018-0.953,0.044-1.425c-6.127-0.743-10.877-5.952-10.877-12.28v-7.033
		c-6.546,4.568-10.833,12.15-10.833,20.738c0,13.96,11.317,25.276,25.276,25.276c3.877,0,7.549-0.875,10.833-2.436
		C93.833,121.039,87.929,112.338,87.929,102.256z"/>
</g>
<rect y="171.891" style="fill:#F77C79;" width="453.32" height="28.887"/>
<rect y="171.891" style="fill:#DD6464;" width="20.633" height="28.887"/>
<path id="SVGCleanerId_0" style="fill:#585A60;" d="M93.603,7.393c6.838,0,12.38,5.543,12.38,12.38v68.778
	c0,6.838-5.542,12.38-12.38,12.38h-4.127c-6.837,0-12.38-5.542-12.38-12.38V19.773c0-6.837,5.543-12.38,12.38-12.38
	C89.476,7.393,93.603,7.393,93.603,7.393z"/>
<path id="SVGCleanerId_1" style="fill:#585A60;" d="M221.53,7.393c6.838,0,12.38,5.543,12.38,12.38v68.778
	c0,6.838-5.542,12.38-12.38,12.38h-4.127c-6.837,0-12.38-5.542-12.38-12.38V19.773c0-6.837,5.543-12.38,12.38-12.38
	C217.403,7.393,221.53,7.393,221.53,7.393z"/>
<path id="SVGCleanerId_2" style="fill:#585A60;" d="M349.457,7.393c6.838,0,12.38,5.543,12.38,12.38v68.778
	c0,6.838-5.542,12.38-12.38,12.38h-4.127c-6.837,0-12.38-5.542-12.38-12.38V19.773c0-6.837,5.543-12.38,12.38-12.38
	C345.33,7.393,349.457,7.393,349.457,7.393z"/>
<g>
	<path id="SVGCleanerId_0_1_" style="fill:#585A60;" d="M93.603,7.393c6.838,0,12.38,5.543,12.38,12.38v68.778
		c0,6.838-5.542,12.38-12.38,12.38h-4.127c-6.837,0-12.38-5.542-12.38-12.38V19.773c0-6.837,5.543-12.38,12.38-12.38
		C89.476,7.393,93.603,7.393,93.603,7.393z"/>
</g>
<g>
	<path id="SVGCleanerId_1_1_" style="fill:#585A60;" d="M221.53,7.393c6.838,0,12.38,5.543,12.38,12.38v68.778
		c0,6.838-5.542,12.38-12.38,12.38h-4.127c-6.837,0-12.38-5.542-12.38-12.38V19.773c0-6.837,5.543-12.38,12.38-12.38
		C217.403,7.393,221.53,7.393,221.53,7.393z"/>
</g>
<g>
	<path id="SVGCleanerId_2_1_" style="fill:#585A60;" d="M349.457,7.393c6.838,0,12.38,5.543,12.38,12.38v68.778
		c0,6.838-5.542,12.38-12.38,12.38h-4.127c-6.837,0-12.38-5.542-12.38-12.38V19.773c0-6.837,5.543-12.38,12.38-12.38
		C345.33,7.393,349.457,7.393,349.457,7.393z"/>
</g>
<g>
	<path style="fill:#414356;" d="M91.539,88.551V19.773c0-4.994,2.964-9.286,7.222-11.244c-3.002-1.38-5.046-1.136-9.285-1.136
		c-6.837,0-12.38,5.543-12.38,12.38v68.778c0,6.838,5.543,12.38,12.38,12.38h4.127c1.844,0,3.587-0.414,5.158-1.136
		C94.503,97.838,91.539,93.546,91.539,88.551z"/>
	<path style="fill:#414356;" d="M219.466,88.551V19.773c0-4.994,2.964-9.286,7.222-11.244c-1.572-0.722-3.315-1.136-5.158-1.136
		h-4.127c-6.837,0-12.38,5.543-12.38,12.38v68.778c0,6.838,5.543,12.38,12.38,12.38h4.127c1.844,0,3.587-0.414,5.158-1.136
		C222.43,97.838,219.466,93.546,219.466,88.551z"/>
	<path style="fill:#414356;" d="M347.393,88.551V19.773c0-4.994,2.964-9.286,7.222-11.244c-3.002-1.38-5.046-1.136-9.285-1.136
		c-6.837,0-12.38,5.543-12.38,12.38v68.778c0,6.838,5.543,12.38,12.38,12.38h4.127c1.844,0,3.587-0.414,5.158-1.136
		C350.357,97.838,347.393,93.546,347.393,88.551z"/>
</g>
<path style="fill:#585A60;" d="M208.228,373.305c0-14.55-8.903-17.373-20.848-17.373c-7.383,0-9.772-6.516-9.772-13.03
	s2.389-13.029,9.772-13.029c8.252,0,16.939-1.086,16.939-18.676c0-12.596-7.166-15.636-16.069-15.636
	c-10.641,0-16.07,2.606-16.07,11.075c0,7.383-3.257,12.378-15.853,12.378c-15.635,0-17.59-3.257-17.59-13.681
	c0-16.938,12.161-38.872,49.513-38.872c27.579,0,48.427,9.99,48.427,39.306c0,15.853-5.864,30.62-16.722,35.615
	c12.813,4.778,22.151,14.333,22.151,31.923v4.126c0,35.615-24.539,49.079-54.941,49.079c-37.352,0-51.684-22.802-51.684-41.044
	c0-9.772,4.126-12.378,16.069-12.378c13.898,0,17.373,3.04,17.373,11.292c0,10.207,9.555,12.596,19.328,12.596
	C207.467,396.976,208.228,387.405,208.228,373.305z"/>
<g>
	<path style="fill:#414356;" d="M196.607,396.14c2.689,0.607,5.665,0.836,8.664,0.836c14.767,0,19.978-5.429,19.978-19.545v-4.126
		c0-14.55-8.903-17.373-20.848-17.373c-7.383,0-9.772-6.516-9.772-13.03s2.389-13.029,9.772-13.029
		c8.252,0,16.939-1.086,16.939-18.676c0-12.596-7.166-15.636-16.069-15.636c-3.745,0-6.83,0.333-9.274,1.12
		c4.967,1.76,8.321,5.901,8.321,14.515c0,17.59-8.687,18.676-16.939,18.676c-7.383,0-9.772,6.515-9.772,13.029
		c0,6.514,2.389,13.03,9.772,13.03c11.945,0,20.848,2.823,20.848,17.373v4.126C208.228,388.45,205.026,394.158,196.607,396.14z"/>
	<path style="fill:#414356;" d="M156.326,319.015c2.886,0,5.262-0.274,7.241-0.767c-6.747-1.474-7.808-5.261-7.808-12.914
		c0-15.641,10.387-35.527,41.384-38.484c-39.548-3.552-58.406,16.295-58.406,38.484
		C138.736,315.757,140.691,319.015,156.326,319.015z"/>
	<path style="fill:#414356;" d="M152.502,385.466c0-7.115,2.205-10.421,8.005-11.698c-2.345-0.464-5.284-0.68-8.958-0.68
		c-11.944,0-16.069,2.606-16.069,12.378c0,18.241,14.333,41.044,51.684,41.044c3.003,0,5.945-0.137,8.817-0.408
		C164.729,423.01,152.502,402.303,152.502,385.466z"/>
</g>
<path style="fill:#585A60;" d="M279.185,304.248c-6.736,4.181-8.408,5.646-11.726,5.646c-6.298,0-10.641-6.732-10.641-13.464
	c0-4.56,1.954-8.903,6.298-11.51l28.665-17.373c1.737-1.086,3.909-1.52,6.298-1.52c6.949,0,14.984,4.126,14.984,10.641v138.115
	c0,6.949-8.47,10.423-16.939,10.423s-16.939-3.475-16.939-10.423L279.185,304.248L279.185,304.248z"/>
<path style="fill:#414356;" d="M297.588,276.668c0-3.849-2.812-6.853-6.54-8.677l-27.933,16.929
	c-8.166,4.9-7.604,15.797-2.796,21.432l3.39-2.104v4.77c5.455,2.627,9.363-0.976,15.475-4.77v110.535
	c0,4.76,3.976,7.888,9.201,9.387c5.226-1.499,9.201-4.627,9.201-9.387V276.668H297.588z"/>
<g>
</g>
<g>
</g>
<g>
</g>
<g>
</g>
<g>
</g>
<g>
</g>
<g>
</g>
<g>
</g>
<g>
</g>
<g>
</g>
<g>
</g>
<g>
</g>
<g>
</g>
<g>
</g>
<g>
</g>
</svg>
