<svg id="Capa_1" enable-background="new 0 0 512 512" height="512" viewBox="0 0 512 512" width="512" xmlns="http://www.w3.org/2000/svg"><g><g><path d="m.237 171.562c0 168.805 228.343 285.499 253.439 298.211 1.465.742 3.184.742 4.649 0 25.095-12.712 253.439-131.903 253.439-298.211.001.001.002.002.003.003-.259-5.037-.722-10.112-1.422-15.227-22.614-165.299-222.791-148.97-254.345-48.278-31.555-100.692-231.731-117.021-254.344 48.279-.7 5.116-1.163 10.191-1.422 15.228.001-.002.002-.003.003-.005z" fill="#da4a54"/><path d="m331.008 242.607h-9.248v-21.429c0-15.223-12.384-27.607-27.607-27.607h-95.602v-43.324c0-4.277-3.466-7.742-7.742-7.742h-26.298c-4.276 0-7.742 3.466-7.742 7.742s3.467 7.742 7.742 7.742h18.555v103.2c0 4.276 3.466 7.742 7.742 7.742s7.742-3.466 7.742-7.742v-52.134h95.602c6.684 0 12.122 5.438 12.122 12.123v21.429h-103.096l16.968 13.393 27.341 6.244 46.928 8.756 46.916-9.245v-8.824c0-5.702-4.622-10.324-10.323-10.324z" fill="#c3d0d8"/><path d="m341.331 261.755-93.843.49-9.759 9.869 21.074 8.223h67.054v47.338c0 4.276 3.466 7.742 7.742 7.742s7.742-3.466 7.742-7.742z" fill="#b0c2cc"/><path d="m253.676 460.773c-25.096-12.712-245.113-128.623-253.439-289.211-8.749 170.166 227.378 294.591 253.437 307.791 1.464.742 3.187.742 4.651 0 26.059-13.201 262.186-137.625 253.437-307.791-8.326 160.587-228.343 276.499-253.439 289.21-1.463.742-3.183.742-4.647.001z" fill="#d82e3d"/><path d="m313.517 331.076c0 12.097 11.086 21.694 19.903 21.694s19.903-7.643 19.903-21.694c.006-.004.011-.007.017-.011-3.504-7.491-11.104-12.682-19.92-12.682-8.82 0-16.423 5.197-19.925 12.694.007 0 .015-.001.022-.001z" fill="#edf4fa"/><path d="m144.027 293.188c0 34.581 29.245 59.581 59.151 59.581s59.151-27.034 59.151-59.581c-4.465-28.654-29.245-50.581-59.151-50.581-29.905 0-54.686 21.928-59.151 50.581z" fill="#edf4fa"/><ellipse cx="203.178" cy="302.479" fill="#407093" rx="19.561" ry="19.561" transform="matrix(.987 -.16 .16 .987 -45.828 36.451)"/><g fill="#d8e5ef"><path d="m203.178 343.769c-29.906 0-54.686-21.927-59.151-50.581-.472 3.028-.721 6.13-.721 9.291 0 33.066 26.806 59.872 59.872 59.872s59.872-26.805 59.872-59.872c0-3.161-.249-6.263-.721-9.291-4.464 28.654-29.245 50.581-59.151 50.581z"/><path d="m333.42 343.769c-8.816 0-16.399-5.202-19.903-12.693-1.321 2.826-2.081 5.966-2.081 9.291 0 12.141 9.842 21.984 21.984 21.984 12.141 0 21.984-9.842 21.984-21.984 0-3.325-.76-6.465-2.081-9.291-3.504 7.491-11.087 12.693-19.903 12.693z"/></g></g></g></svg>