<svg id="Capa_1" enable-background="new 0 0 512 512" height="512" viewBox="0 0 512 512" width="512" xmlns="http://www.w3.org/2000/svg"><g><path d="m350.994 110.896h81.481v233.179h-81.481z" fill="#b2caec"/><path d="m401.715 110.896h34.863v233.179h-34.863z" fill="#82aee3"/><path d="m433.523 93.749h-83.578c-3.64 0-6.591 2.951-6.591 6.591v19.684c0 3.64 2.951 6.591 6.591 6.591h83.578c3.64 0 6.591-2.951 6.591-6.591v-19.684c0-3.64-2.951-6.591-6.591-6.591z" fill="#528fd8"/><path d="m393.565 67.366c1.934 1.556 4.691 1.555 6.624-.002l23.777-19.157c6.055-4.878 10.496-11.469 12.744-18.913 1.947-6.446.619-13.436-3.556-18.719-5.78-7.314-15.753-9.831-24.312-6.137-4.66 1.935-8.438 4.463-11.983 7.658-3.531-3.183-7.308-5.717-11.983-7.658-8.559-3.694-18.532-1.177-24.312 6.137-4.175 5.283-5.503 12.273-3.556 18.719 2.248 7.443 6.69 14.035 12.744 18.913z" fill="#eb5569"/><path d="m433.523 93.749h-34.863c3.64 0 6.59 2.951 6.59 6.591v19.684c0 3.64-2.951 6.591-6.59 6.591h34.863c3.64 0 6.59-2.951 6.59-6.591v-19.684c.001-3.64-2.95-6.591-6.59-6.591z" fill="#0473ce"/><g><path d="m433.155 10.576c-5.78-7.314-15.753-9.831-24.312-6.137-1.907.792-3.66 1.689-5.317 2.684 1.272.994 2.446 2.143 3.481 3.453 4.175 5.283 5.503 12.273 3.556 18.719-2.248 7.443-6.69 14.035-12.744 18.913l-14.023 11.298 9.77 7.861c1.934 1.556 4.691 1.555 6.624-.002l23.777-19.156c6.055-4.878 10.496-11.47 12.744-18.913 1.947-6.447.619-13.437-3.556-18.72z" fill="#e53950"/></g><path d="m256 101.33-180.578 156.203v241.766c0 5.495 4.454 9.949 9.949 9.949h341.258c5.495 0 9.949-4.454 9.949-9.949v-241.766z" fill="#fdd1d5"/><path d="m407.376 261.139v238.16c0 5.495-4.454 9.949-9.949 9.949h29.202c5.495 0 9.949-4.454 9.949-9.949v-212.9z" fill="#f6b2bb"/><path d="m392.247 437.504h-101.467c-3.962 0-7.174-3.212-7.174-7.174v-79.08c0-3.962 3.212-7.174 7.174-7.174h101.467c3.962 0 7.174 3.212 7.174 7.174v79.08c0 3.962-3.212 7.174-7.174 7.174z" fill="#c0d6f2"/><path d="m246.708 509.248h-101.332v-156.974c0-3.962 3.212-7.174 7.174-7.174h86.983c3.962 0 7.174 3.212 7.174 7.174v156.974z" fill="#528fd8"/><g><path d="m341.513 445.191c-4.245 0-7.687-3.442-7.687-7.687v-93.429c0-4.245 3.442-7.687 7.687-7.687s7.687 3.442 7.687 7.687v93.429c0 4.245-3.441 7.687-7.687 7.687z" fill="#528fd8"/></g><g><path d="m399.421 398.476h-115.816c-4.245 0-7.687-3.442-7.687-7.687s3.442-7.687 7.687-7.687h115.816c4.245 0 7.687 3.442 7.687 7.687s-3.442 7.687-7.687 7.687z" fill="#528fd8"/></g><g><path d="m170.762 450.485c-4.245 0-7.687-3.442-7.687-7.687v-16.399c0-4.245 3.442-7.687 7.687-7.687s7.687 3.442 7.687 7.687v16.399c0 4.245-3.442 7.687-7.687 7.687z" fill="#0055a3"/></g><g><path d="m392.247 445.191h-101.467c-8.194 0-14.861-6.667-14.861-14.861v-79.08c0-8.194 6.667-14.861 14.861-14.861h101.467c8.194 0 14.861 6.667 14.861 14.861v79.08c0 8.194-6.667 14.861-14.861 14.861zm-100.955-15.374h100.442v-78.055h-100.442z" fill="#528fd8"/></g><g><path d="m392.247 336.388h-29.053c8.194 0 14.861 6.667 14.861 14.861v.512h13.679v78.055h-13.679v.512c0 8.194-6.667 14.861-14.861 14.861h29.053c8.194 0 14.861-6.667 14.861-14.861v-79.08c0-8.193-6.667-14.86-14.861-14.86z" fill="#0473ce"/></g><path d="m399.421 383.103h-29.053c4.245 0 7.687 3.442 7.687 7.687s-3.442 7.687-7.687 7.687h29.053c4.245 0 7.687-3.442 7.687-7.687s-3.442-7.687-7.687-7.687z" fill="#0473ce"/><path d="m436.578 331.299v-65.034l-185.625-160.569-175.531 151.837v13.155l141.513-122.411c2.31-1.998 5.736-1.998 8.046 0l211.286 182.765c.102.089.208.17.311.257z" fill="#f6b2bb"/><g><path d="m471.309 331.043-211.286-182.766c-2.31-1.998-5.736-1.998-8.046 0l-211.286 182.766c-10.275 8.888-25.808 7.763-34.696-2.511-8.888-10.275-7.763-25.808 2.511-34.696l236.766-204.806c6.16-5.328 15.297-5.328 21.457 0l236.766 204.806c10.275 8.888 11.399 24.422 2.511 34.696s-24.422 11.398-34.697 2.511z" fill="#e53950"/></g></g></svg>