<svg id="Capa_1" enable-background="new 0 0 512 512" height="512" viewBox="0 0 512 512" width="512" xmlns="http://www.w3.org/2000/svg"><g><g><path d="m40.502 84.377h168.753v175.136h-168.753z" fill="#fe7701"/></g><g><g><path d="m262.244 278.831v168.598h237.756c6.627 0 12-5.373 12-12v-156.598c0-22.989-18.637-41.626-41.626-41.626h-166.504c-22.99 0-41.626 18.636-41.626 41.626z" fill="#3c87d0"/></g><g><path d="m414.179 343.351c0-41.315-33.612-74.927-74.927-74.927h-7.858c7.099-9.228 12.549-19.783 15.924-31.22h-43.448c-22.989 0-41.626 18.637-41.626 41.626v168.598h151.935z" fill="#0078c8"/></g><g><path d="m412.098 228.892-24.976 18.778v6.197l22.604 22.604c2.246 2.246 6.087 1.104 6.742-2.003l7.858-37.263z" fill="#7bacdf"/></g><g><path d="m362.146 228.892 24.976 18.778v6.197l-22.604 22.604c-2.246 2.246-6.087 1.104-6.742-2.003l-7.858-37.263z" fill="#7bacdf"/></g><g><path d="m412.098 228.892-20.733 20.733c-2.343 2.343-6.142 2.343-8.485 0l-20.733-20.733v-31.22h49.951z" fill="#f6a96c"/></g><g><path d="m324.163 67.078v78.561c0 34.484 27.955 62.439 62.439 62.439s62.439-27.955 62.439-62.439l13.986-20.813-13.986-18.026v-39.722z" fill="#fed2a4"/></g><g><path d="m324.163 145.64c0 25.738 15.577 47.833 37.815 57.388 7.347-6.267 11.7-15.486 11.7-25.322v-44.346c0-24.689-9.652-48.538-26.657-66.281h-22.858z" fill="#ffbd86"/></g><g><path d="m302.745 66.602v46.583l12.052-6.384h10.406l6.945-23.446c2.409-8.131 9.879-13.709 18.359-13.709h73.23c8.48 0 15.95 5.578 18.359 13.709l6.945 23.446h10.406l12.052 6.384v-46.583c0-36.783-29.819-66.602-66.602-66.602h-35.55c-36.783 0-66.602 29.819-66.602 66.602z" fill="#d77f4a"/></g><g><path d="m345.292 65.319c-7.632-13.907-20.107-24.515-34.747-29.997-4.972 9.328-7.8 19.972-7.8 31.28v46.583l12.052-6.384h10.406l6.945-23.446c2.305-7.782 9.249-13.212 17.275-13.665-1.33-1.495-2.703-2.956-4.131-4.371z" fill="#c86d36"/></g><g><path d="m459.447 104.014c-3.795 0-7.343 1.032-10.406 2.807v38.819h10.406c11.495 0 20.813-9.318 20.813-20.813s-9.318-20.813-20.813-20.813z" fill="#f6a96c"/></g></g><g><g><path d="m249.756 278.831v168.598h-237.756c-6.627 0-12-5.373-12-12v-156.598c0-22.989 18.637-41.626 41.626-41.626h24.976l58.797 24.988 57.756-24.988h24.976c22.988 0 41.625 18.636 41.625 41.626z" fill="#80d261"/></g><g><path d="m97.821 343.351c0-41.315 33.612-74.927 74.927-74.927h7.858c-3.688-4.794-6.931-9.946-9.669-15.394-2.533-5.039-4.633-2.892-6.255-8.387l18.472-7.439h24.976c22.989 0 41.626 18.637 41.626 41.626v168.598h-151.935z" fill="#68ca44"/></g><g><path d="m149.854 237.205v-39.532h-49.952v39.532h-33.3v.002c0 8.832 3.509 17.302 9.754 23.547l24.976 24.976c6.503 6.503 15.025 9.754 23.547 9.754s17.045-3.251 23.547-9.754l24.976-24.976c6.245-6.245 9.754-14.715 9.754-23.547v-.002z" fill="#f6a96c"/></g><g><path d="m187.837 67.078v78.561c0 34.484-27.955 62.439-62.439 62.439s-62.439-27.955-62.439-62.439l-10.54-18.829 10.54-20.01v-39.722z" fill="#fed2a4"/></g><g><path d="m187.837 145.64c0 25.738-15.577 47.833-37.815 57.388-7.347-6.267-11.7-15.486-11.7-25.322v-44.346c0-24.689 9.652-48.538 26.657-66.281h22.858z" fill="#ffbd86"/></g><g><path d="m209.255 84.377v28.808l-12.052-6.384h-10.406l-6.945-23.446c-2.409-8.131-9.879-13.709-18.359-13.709-5.154 0-10.09 2.077-13.693 5.762l-13.055 13.351c-11.283 11.54-26.742 18.044-42.881 18.043l-28.905-.001h-10.406l-12.052 6.384v-28.808c0-46.6 37.777-84.377 84.377-84.377 46.6 0 84.377 37.777 84.377 84.377z" fill="#fe9738"/></g><g><path d="m166.708 65.319c-1.428 1.415-2.802 2.876-4.131 4.371 8.026.453 14.97 5.883 17.275 13.665l6.945 23.446h10.406l12.052 6.384v-28.808c0-17.143-5.126-33.081-13.909-46.394-11.98 5.921-22.092 15.41-28.638 27.336z" fill="#fe860a"/></g><g><path d="m52.553 104.014c3.795 0 7.343 1.032 10.407 2.807v38.819h-10.407c-11.495 0-20.813-9.318-20.813-20.813s9.318-20.813 20.813-20.813z" fill="#f6a96c"/></g></g><g><g><path d="m131.122 343.351v156.649c0 6.627 5.373 12 12 12h225.756c6.627 0 12-5.373 12-12v-156.649c0-22.989-18.637-41.626-41.626-41.626h-166.504c-22.989 0-41.626 18.637-41.626 41.626z" fill="#cbe5e8"/></g><g><path d="m260.491 506.931 18.049-20.371c1.546-1.745 2.254-4.078 1.938-6.389l-16.144-118.107-8.334-6.064-8.334 6.065-16.144 118.107c-.316 2.31.392 4.643 1.938 6.389l18.049 20.371c2.388 2.694 6.594 2.694 8.982-.001z" fill="#fe646f"/></g><g><path d="m264.334 362.065 15.299-23.081-23.633-23.082-23.633 23.082 15.299 23.081z" fill="#fd4755"/></g><g><path d="m339.252 301.725h-33.301c22.989 0 41.626 18.637 41.626 41.626v168.649h21.301c6.627 0 12-5.373 12-12v-156.649c0-22.989-18.637-41.626-41.626-41.626z" fill="#a8d3d8"/></g><path d="m280.976 293.412h-49.951l-12.228 8.313 7.858 37.263c.655 3.108 4.497 4.249 6.742 2.003l19.775-19.775c1.562-1.562 4.095-1.562 5.657 0l19.775 19.775c2.246 2.246 6.087 1.104 6.742-2.003l7.858-37.263z" fill="#eef5f6"/><g><path d="m280.976 293.412-20.733 20.733c-2.343 2.343-6.142 2.343-8.485 0l-20.733-20.733v-31.22h49.951z" fill="#f6a96c"/></g><g><path d="m193.041 131.599v78.561c0 34.484 27.955 62.439 62.439 62.439s62.439-27.955 62.439-62.439v-78.561z" fill="#fed2a4"/></g><g><path d="m286.699 131.599v78.561c0 29.094-19.899 53.54-46.829 60.472 4.989 1.284 10.22 1.967 15.61 1.967 34.484 0 62.439-27.955 62.439-62.439v-78.561z" fill="#ffbd86"/></g><g><path d="m317.919 85.282c-4.764-12.53-16.774-20.813-30.179-20.813h-45.994c-38.728 0-70.123 31.395-70.123 70.123v43.113l11.011-6.384h10.407c45.843 0 67.968-14.413 76.471-22.045 1.554-1.395 3.904.197 3.222 2.17-.296.856-.633 1.654-.994 2.392-1.427 2.92 1.003 6.289 4.227 5.879 12.337-1.569 22.067-6.145 29.041-10.705 1.018-.666 2.381-.271 2.895.831l10.016 21.479h10.406l12.052 6.384v-44.346c0-17.384-7.247-33.98-19.997-45.796z" fill="#d77f4a"/></g><g><path d="m320.38 87.563-2.461-2.281c-4.605-12.112-15.986-20.232-28.848-20.762 2.715 2.958 4.905 6.45 6.39 10.355l2.461 2.281c12.75 11.816 19.997 28.413 19.997 45.796v48.369h10.406l12.052 6.384v-44.346c0-17.383-7.247-33.98-19.997-45.796z" fill="#c86d36"/></g><g><path d="m193.041 171.341c-3.064-1.775-6.611-2.807-10.407-2.807-11.495 0-20.813 9.318-20.813 20.813s9.318 20.813 20.813 20.813h10.407z" fill="#f6a96c"/></g><g><path d="m328.325 168.534c-3.795 0-7.343 1.032-10.406 2.807v38.819h10.406c11.495 0 20.813-9.318 20.813-20.813s-9.318-20.813-20.813-20.813z" fill="#f6a96c"/></g></g><path d="m462.874 447.428v-123.85c0-4.142 3.358-7.5 7.5-7.5s7.5 3.358 7.5 7.5v123.85z" fill="#0268b4"/><path d="m34.126 447.428v-123.85c0-4.142 3.358-7.5 7.5-7.5s7.5 3.358 7.5 7.5v123.85z" fill="#4fc123"/><g fill="#8ebac5"><path d="m339.252 380.599c-4.142 0-7.5 3.358-7.5 7.5v123.901h15v-123.901c0-4.142-3.358-7.5-7.5-7.5z"/><path d="m172.748 380.599c-4.142 0-7.5 3.358-7.5 7.5v123.901h15v-123.901c0-4.142-3.358-7.5-7.5-7.5z"/></g></g></svg>