<svg id="Capa_1" enable-background="new 0 0 512 512" height="512" viewBox="0 0 512 512" width="512" xmlns="http://www.w3.org/2000/svg"><g><path d="m366.118 128.859h-316.157c-27.593 0-49.961 22.368-49.961 49.961v188.925c0 27.593 22.368 49.961 49.961 49.961h34.385c1.955 0 3.778 1.091 4.609 2.86 11.368 24.191-9.743 48.013-22.668 59.604-2.812 2.522-.833 7.148 2.935 6.903 72.015-4.668 88.499-51.434 91.832-65.43.551-2.314 2.62-3.937 4.998-3.937h200.064c27.593 0 49.961-22.368 49.961-49.961v-188.925c.002-27.593-22.366-49.961-49.959-49.961z" fill="#fe7ab6"/><g><g><path d="m145.556 222.517h-66.213c-4.26 0-7.714-3.453-7.714-7.714s3.454-7.714 7.714-7.714h66.212c4.26 0 7.714 3.453 7.714 7.714.001 4.261-3.453 7.714-7.713 7.714z" fill="#fe3d97"/></g><g><path d="m145.556 261.289h-66.213c-4.26 0-7.714-3.453-7.714-7.714s3.454-7.714 7.714-7.714h66.212c4.26 0 7.714 3.453 7.714 7.714.001 4.261-3.453 7.714-7.713 7.714z" fill="#fe3d97"/></g><g><path d="m336.736 300.063h-59.29c-4.26 0-7.714-3.453-7.714-7.714s3.454-7.714 7.714-7.714h59.29c4.26 0 7.714 3.453 7.714 7.714s-3.454 7.714-7.714 7.714z" fill="#fe3d97"/></g><g><path d="m241.518 300.063h-162.175c-4.26 0-7.714-3.453-7.714-7.714s3.454-7.714 7.714-7.714h162.175c4.26 0 7.714 3.453 7.714 7.714.001 4.261-3.453 7.714-7.714 7.714z" fill="#fe3d97"/></g><g><path d="m336.736 339.477h-257.393c-4.26 0-7.714-3.453-7.714-7.714s3.454-7.714 7.714-7.714h257.392c4.26 0 7.714 3.453 7.714 7.714.001 4.261-3.453 7.714-7.713 7.714z" fill="#fe3d97"/></g></g><path d="m145.483 417.709h20.571c-2.376 0-4.443 1.625-4.999 3.939-3.332 13.988-19.82 60.756-91.829 65.426-1.707.113-3.044-.771-3.734-2.006 57.825-10.213 71.937-50.594 74.991-63.42.556-2.314 2.624-3.939 5-3.939z" fill="#fe5ca7"/><path d="m416.083 178.818v188.924c0 27.596-22.371 49.967-49.967 49.967h-20.571c27.596 0 49.967-22.371 49.967-49.967v-188.924c0-27.596-22.371-49.957-49.967-49.957h20.571c27.596 0 49.967 22.361 49.967 49.957z" fill="#fe5ca7"/><path d="m192.231 43.752v188.164c0 10.399 8.43 18.829 18.829 18.829h282.11c10.399 0 18.829-8.43 18.829-18.829v-188.164c0-10.399-8.43-18.829-18.829-18.829l-141.054 26.825-141.055-26.825c-10.4 0-18.83 8.43-18.83 18.829z" fill="#fef056"/><path d="m511.995 43.749v188.163c0 10.398-8.424 18.833-18.822 18.833h-20.571c10.398 0 18.822-8.434 18.822-18.833v-188.163c0-10.399-8.424-18.822-18.822-18.822h20.571c10.399 0 18.822 8.423 18.822 18.822z" fill="#fee903"/><path d="m506.21 30.185-151.018 137.301c-1.745 1.586-4.409 1.586-6.153 0l-151.019-137.301c3.385-3.265 7.967-5.268 13.039-5.268h282.112c5.072.001 9.654 2.003 13.039 5.268z" fill="#fedf30"/><path d="m506.215 30.182-151.022 137.301c-1.748 1.584-4.412 1.584-6.151 0l-13.772-12.517 143.04-130.05h14.863c5.071 0 9.648 2.006 13.042 5.266z" fill="#fac600"/></g></svg>