<?xml version="1.0" encoding="iso-8859-1"?>
<!-- Generator: Adobe Illustrator 19.0.0, SVG Export Plug-In . SVG Version: 6.00 Build 0)  -->
<svg version="1.1" id="Capa_1" xmlns="http://www.w3.org/2000/svg" xmlns:xlink="http://www.w3.org/1999/xlink" x="0px" y="0px"
	 viewBox="0 0 512 512" style="enable-background:new 0 0 512 512;" xml:space="preserve">
<polyline style="fill:#2FCC93;" points="39.301,91.066 39.301,512 472.693,512 472.693,91.066 "/>
<polyline style="fill:#26B57E;" points="39.301,91.066 39.301,153.051 472.693,153.051 472.693,91.066 "/>
<path style="fill:#E94F4E;" d="M140.41,57.375H17.746c-7.047,0-12.76,5.712-12.76,12.76v35.205c0,7.047,5.712,12.76,12.76,12.76
	H140.41h231.169h122.675c7.047,0,12.76-5.712,12.76-12.76V70.135c0-7.047-5.712-12.76-12.76-12.76H371.579"/>
<path style="fill:#EAEAEA;" d="M319.996,182.133H191.998c-14.949,0-27.067-12.119-27.067-27.067V27.067
	C164.931,12.119,177.049,0,191.998,0h127.998c14.949,0,27.067,12.119,27.067,27.067v127.998
	C347.063,170.014,334.944,182.133,319.996,182.133z"/>
<path style="fill:#E94F4E;" d="M307.565,66.349h-16.433c-5.753,0-10.417-4.663-10.417-10.417V39.498
	c0-5.753-4.663-10.417-10.417-10.417h-28.603c-5.753,0-10.417,4.663-10.417,10.417v16.433c0,5.753-4.663,10.417-10.417,10.417
	h-16.433c-5.753,0-10.417,4.663-10.417,10.417v28.602c0,5.753,4.663,10.417,10.417,10.417h16.433
	c5.753,0,10.417,4.663,10.417,10.417v16.433c0,5.753,4.663,10.417,10.417,10.417h28.602c5.753,0,10.417-4.663,10.417-10.417V126.2
	c0-5.753,4.663-10.417,10.417-10.417h16.433c5.753,0,10.417-4.663,10.417-10.417V76.766
	C317.981,71.012,313.318,66.349,307.565,66.349z"/>
<rect x="77.125" y="362.015" style="fill:#A9E5ED;" width="72.579" height="86.789"/>
<path style="fill:#93D3D8;" d="M149.705,362.014v86.79h-72.58v-12.684c60.531,0,54.906-44.404,54.906-74.106H149.705z"/>
<rect x="77.125" y="219.094" style="fill:#A9E5ED;" width="72.579" height="86.789"/>
<path style="fill:#93D3D8;" d="M149.705,219.095v86.79h-72.58v-12.684c60.531,0,54.906-44.404,54.906-74.106H149.705z"/>
<rect x="219.711" y="219.094" style="fill:#A9E5ED;" width="72.579" height="86.789"/>
<path style="fill:#93D3D8;" d="M292.286,219.095v86.79h-72.58v-12.684c60.531,0,54.906-44.404,54.906-74.106H292.286z"/>
<rect x="362.287" y="219.094" style="fill:#A9E5ED;" width="72.579" height="86.789"/>
<path style="fill:#93D3D8;" d="M434.868,219.095v86.79h-72.58v-12.684c60.531,0,54.906-44.404,54.906-74.106H434.868z"/>
<rect x="194.529" y="362.015" style="fill:#A9E5ED;" width="122.932" height="149.985"/>
<path style="fill:#93D3D8;" d="M317.463,362.014v149.985H194.527V494.07c108.5,0,100.498-84.526,100.498-132.054h22.438V362.014z"/>
<rect x="362.287" y="362.015" style="fill:#A9E5ED;" width="72.579" height="86.789"/>
<path style="fill:#93D3D8;" d="M434.867,362.014v86.79h-72.58v-12.684c60.531,0,54.906-44.404,54.906-74.106H434.867z"/>
<g>
	<path style="fill:#6C7380;" d="M317.466,354.174h-122.94c-4.328,0-7.837,3.509-7.837,7.837V512h15.673V369.848h45.797V512h15.673
		V369.848h45.796V512h15.673V362.011C325.303,357.683,321.795,354.174,317.466,354.174z"/>
	<path style="fill:#6C7380;" d="M219.708,313.721h72.579c4.329,0,7.837-3.509,7.837-7.837v-53.006c0-0.027,0.004-0.053,0.004-0.08
		c0-0.027-0.004-0.053-0.004-0.08v-33.624c0-4.328-3.508-7.837-7.837-7.837h-72.579c-4.328,0-7.837,3.509-7.837,7.837v86.791
		C211.871,310.212,215.38,313.721,219.708,313.721z M227.544,298.048v-37.414h56.905v37.414H227.544z M284.449,226.931v18.031
		h-56.905v-18.031H284.449z"/>
	<path style="fill:#6C7380;" d="M434.868,211.257h-72.579c-4.329,0-7.837,3.509-7.837,7.837v33.663c0,0.014-0.002,0.026-0.002,0.041
		c0,0.015,0.002,0.027,0.002,0.041v53.046c0,4.328,3.508,7.837,7.837,7.837h72.579c4.329,0,7.837-3.509,7.837-7.837v-86.791
		C442.704,214.766,439.196,211.257,434.868,211.257z M427.031,226.931v18.031h-56.905v-18.031H427.031z M370.126,298.048v-37.414
		h56.905v37.414H370.126z"/>
	<path style="fill:#6C7380;" d="M149.705,211.257H77.126c-4.328,0-7.837,3.509-7.837,7.837v33.663c0,0.014-0.002,0.026-0.002,0.041
		c0,0.015,0.002,0.027,0.002,0.041v53.046c0,4.328,3.509,7.837,7.837,7.837h72.579c4.328,0,7.837-3.509,7.837-7.837v-86.791
		C157.541,214.766,154.033,211.257,149.705,211.257z M141.868,226.931v18.031H84.963v-18.031H141.868z M84.963,298.048v-37.414
		h56.905v37.414H84.963z"/>
	<path style="fill:#6C7380;" d="M149.705,354.174H77.126c-4.328,0-7.837,3.509-7.837,7.837v86.791c0,4.328,3.509,7.837,7.837,7.837
		h72.579c4.328,0,7.837-3.509,7.837-7.837v-86.791C157.541,357.683,154.033,354.174,149.705,354.174z M141.868,369.848v18.031
		H84.963v-18.031H141.868z M84.963,440.966v-37.414h56.905v37.414H84.963z"/>
</g>
<g>
	<path style="fill:#E94F4E;" d="M276.743,418.611c-4.329,0-7.837,3.509-7.837,7.837v41.492c0,4.328,3.508,7.837,7.837,7.837
		c4.329,0,7.837-3.509,7.837-7.837v-41.492C284.58,422.12,281.071,418.611,276.743,418.611z"/>
	<path style="fill:#E94F4E;" d="M235.25,418.611c-4.328,0-7.837,3.509-7.837,7.837v41.492c0,4.328,3.509,7.837,7.837,7.837
		c4.328,0,7.837-3.509,7.837-7.837v-41.492C243.087,422.12,239.578,418.611,235.25,418.611z"/>
</g>
<path style="fill:#6C7380;" d="M434.868,354.174h-72.579c-4.329,0-7.837,3.509-7.837,7.837v33.663c0,0.014-0.002,0.026-0.002,0.041
	c0,0.015,0.002,0.027,0.002,0.041v53.046c0,4.328,3.508,7.837,7.837,7.837h72.579c4.329,0,7.837-3.509,7.837-7.837v-86.791
	C442.704,357.683,439.196,354.174,434.868,354.174z M427.031,369.848v18.031h-56.905v-18.031H427.031z M370.126,440.966v-37.414
	h56.905v37.414H370.126z"/>
<g>
</g>
<g>
</g>
<g>
</g>
<g>
</g>
<g>
</g>
<g>
</g>
<g>
</g>
<g>
</g>
<g>
</g>
<g>
</g>
<g>
</g>
<g>
</g>
<g>
</g>
<g>
</g>
<g>
</g>
</svg>
