<svg height="512pt" viewBox="-66 0 512 512" width="512pt" xmlns="http://www.w3.org/2000/svg"><path d="m193.167969 418.199219c0-51.804688 41.996093-93.800781 93.800781-93.800781 0-125.078126 0-282.652344 0-288.785157 0-19.585937-16.027344-35.613281-35.613281-35.613281h-215.742188c-19.585937 0-35.613281 16.027344-35.613281 35.613281v440.773438c0 3.519531.523438 6.917969 1.484375 10.132812 5.785156 16.875 19.011719 25.480469 34.128906 25.480469h215.742188c4.703125 0 9.214843-.957031 13.359375-2.664062-41.0625-9.992188-71.546875-47-71.546875-91.136719zm0 0" fill="#576574"/><path d="m32.394531 486.519531c-.960937-3.214843-1.488281-6.613281-1.488281-10.132812 0-13.371094 0-430.675781 0-440.773438 0-19.585937 16.027344-35.613281 35.613281-35.613281h-30.90625c-19.585937 0-35.613281 16.027344-35.613281 35.613281v440.773438c0 3.519531.523438 6.917969 1.488281 10.132812h-.003906c5.785156 16.875 19.011719 25.480469 34.128906 25.480469h30.90625c-15.117187 0-28.339843-8.605469-34.125-25.480469zm0 0" fill="#3e4b5a"/><path d="m193.167969 418.199219c0-40.953125 26.246093-75.769531 62.832031-88.5625 0-76.390625 0-182.097657 0-233.546875h-225.03125v326.621094c0 2.472656 2.171875 4.644531 4.644531 4.644531h158c-.292969-3.011719-.445312-6.066407-.445312-9.15625zm0 0" fill="#e4eaf8"/><path d="m30.96875 422.710938c0 2.472656 2.171875 4.644531 4.644531 4.644531h26.261719v-331.265625h-30.90625zm0 0" fill="#c7d2e5"/><path d="m222.179688 219.933594c0 43.460937-35.234376 78.695312-78.695313 78.695312s-78.695313-35.234375-78.695313-78.695312c0-43.460938 35.234376-78.695313 78.695313-78.695313s78.695313 35.234375 78.695313 78.695313zm0 0" fill="#54a0ff"/><path d="m95.695312 219.933594c0-38.171875 27.183594-69.988282 63.242188-77.167969-4.996094-.996094-10.164062-1.527344-15.453125-1.527344-43.460937 0-78.695313 35.234375-78.695313 78.695313 0 43.460937 35.234376 78.695312 78.695313 78.695312 5.289063 0 10.457031-.53125 15.453125-1.527344-36.058594-7.183593-63.242188-38.996093-63.242188-77.167968zm0 0" fill="#338def"/><path d="m166.453125 193.25c0 12.6875-10.28125 22.972656-22.96875 22.972656s-22.972656-10.285156-22.972656-22.972656c0-12.683594 10.285156-22.96875 22.972656-22.96875s22.96875 10.285156 22.96875 22.96875zm0 0" fill="#ffcdbf"/><path d="m151.421875 193.25c0-6.734375 2.898437-12.792969 7.515625-16.992188-4.078125-3.714843-9.503906-5.976562-15.453125-5.976562-12.6875 0-22.972656 10.28125-22.972656 22.96875s10.285156 22.972656 22.972656 22.972656c5.949219 0 11.371094-2.261718 15.453125-5.976562-4.617188-4.203125-7.515625-10.261719-7.515625-16.996094zm0 0" fill="#ffbeab"/><path d="m169.632812 234.421875h-52.296874c-6.800782 0-12.363282 5.5625-12.363282 12.363281v41.769532c11.386719 6.402343 24.515625 10.074218 38.511719 10.074218 13.992187 0 27.125-3.671875 38.511719-10.074218v-41.769532c0-6.800781-5.5625-12.363281-12.363282-12.363281zm0 0" fill="#feca57"/><path d="m104.972656 257v31.554688c17.71875 8.859374 33.574219 12.605468 53.964844 8.546874-23.394531-4.660156-43.042969-19.695312-53.964844-40.101562zm0 0" fill="#f4b537"/><path d="m125.96875 38.503906h35.027344c4.269531 0 7.730468-3.457031 7.730468-7.726562 0-4.269532-3.460937-7.726563-7.730468-7.726563h-35.027344c-4.265625 0-7.726562 3.457031-7.726562 7.726563 0 4.269531 3.460937 7.726562 7.726562 7.726562zm0 0" fill="#3e4b5a"/><path d="m380.769531 418.199219c0 51.804687-41.996093 93.800781-93.800781 93.800781s-93.800781-41.996094-93.800781-93.800781c0-51.804688 41.996093-93.800781 93.800781-93.800781s93.800781 41.996093 93.800781 93.800781zm0 0" fill="#1dd1a1"/><path d="m224.074219 418.199219c0-46.542969 33.898437-85.160157 78.347656-92.527344-5.027344-.835937-10.1875-1.273437-15.453125-1.273437-51.804688 0-93.800781 41.996093-93.800781 93.800781 0 51.804687 41.996093 93.800781 93.800781 93.800781 5.265625 0 10.425781-.441406 15.453125-1.273438-44.449219-7.371093-78.347656-45.988281-78.347656-92.527343zm0 0" fill="#15ba8b"/><path d="m309.605469 456.855469c-2.226563-3.640625-6.984375-4.785157-10.625-2.554688-8.660157 5.300781-19.410157 5.070313-26.136719-.570312-12.730469-10.671875-19.910156-22.386719-23.625-38.582031-1.964844-8.554688 2.714844-18.238282 11.375-23.539063 3.640625-2.230469 4.785156-6.988281 2.554688-10.625-2.226563-3.640625-6.984376-4.785156-10.625-2.554687-14.46875 8.859374-21.847657 25.003906-18.367188 40.175781 4.402344 19.179687 13.226562 33.953125 28.757812 46.96875 11.953126 10.015625 29.695313 10.75 44.136719 1.90625 3.640625-2.230469 4.78125-6.988281 2.554688-10.625zm0 0" fill="#e4eaf8"/><path d="m251.355469 61.9375h-181.199219v36.214844h185.84375v-31.570313c0-2.476562-2.171875-4.644531-4.644531-4.644531zm0 0" fill="#54a0ff"/><path d="m72.21875 61.933594h-36.605469c-2.472656 0-4.644531 2.171875-4.644531 4.644531v31.570313h41.25zm0 0" fill="#ff6b6b"/><path d="m61.875 61.9375h-26.261719c-2.472656 0-4.644531 2.167969-4.644531 4.644531v31.570313h30.90625zm0 0" fill="#ee5253"/><path d="m125.96875 350.324219h35.105469c4.269531 0 7.730469-3.457031 7.730469-7.726563 0-4.265625-3.460938-7.726562-7.730469-7.726562h-35.105469c-4.265625 0-7.726562 3.457031-7.726562 7.726562 0 4.265625 3.460937 7.726563 7.726562 7.726563zm0 0" fill="#1dd1a1"/><path d="m263.289062 358.148438-9.371093 5.738281c-5.800781 3.550781-7.640625 11.199219-4.089844 17l7.355469 12.007812c3.550781 5.796875 11.199218 7.636719 17 4.085938l9.371094-5.738281c5.796874-3.550782 7.636718-11.203126 4.085937-17l-7.351563-12.007813c-3.550781-5.800781-11.199218-7.636719-17-4.085937zm0 0" fill="#e4eaf8"/><path d="m309.746094 434.015625-9.371094 5.738281c-5.800781 3.550782-7.640625 11.199219-4.089844 17l7.355469 12.007813c3.550781 5.800781 11.199219 7.636719 17 4.085937l9.371094-5.738281c5.796875-3.550781 7.636719-11.199219 4.085937-17l-7.351562-12.007813c-3.550782-5.796874-11.199219-7.636718-17-4.085937zm0 0" fill="#e4eaf8"/><path d="m280.410156 392.890625-7.351562-12.007813c-3.550782-5.796874-1.710938-13.449218 4.085937-16.996093l3.011719-1.847657c-3.601562-5.640624-11.136719-7.402343-16.867188-3.894531l-9.371093 5.742188c-5.800781 3.550781-7.640625 11.199219-4.089844 16.996093l7.355469 12.007813c3.550781 5.800781 11.199218 7.640625 17 4.089844l6.359375-3.894531c-.042969-.066407-.09375-.125-.132813-.195313zm0 0" fill="#c7d2e5"/><path d="m326.867188 468.761719-7.351563-12.007813c-3.550781-5.800781-1.710937-13.449218 4.085937-17l3.011719-1.84375c-3.601562-5.640625-11.136719-7.402344-16.867187-3.894531l-9.371094 5.738281c-5.800781 3.550782-7.640625 11.199219-4.089844 17l7.355469 12.007813c3.550781 5.800781 11.199219 7.636719 17 4.089843l6.359375-3.898437c-.042969-.0625-.089844-.125-.132812-.191406zm0 0" fill="#c7d2e5"/><path d="m143.484375 451.097656c-9.675781 0-17.589844 7.917969-17.589844 17.59375 0 9.671875 7.914063 17.589844 17.589844 17.589844s17.589844-7.917969 17.589844-17.589844c0-9.675781-7.914063-17.59375-17.589844-17.59375zm0 0" fill="#3e4b5a"/><path d="m152.164062 468.691406c0-4.460937 1.695313-8.53125 4.457032-11.640625-3.230469-3.636719-7.921875-5.949219-13.136719-5.949219-9.675781 0-17.589844 7.914063-17.589844 17.589844 0 9.675782 7.914063 17.589844 17.589844 17.589844 5.214844 0 9.90625-2.3125 13.136719-5.949219-2.761719-3.109375-4.457032-7.183593-4.457032-11.640625zm0 0" fill="#313f4c"/></svg>