<svg id="Capa_1" enable-background="new 0 0 512 512" height="512" viewBox="0 0 512 512" width="512" xmlns="http://www.w3.org/2000/svg"><g><path d="m289.498 444.781-26.565-62.132-30.634 6.696c-21.272 4.649-34.748 25.663-30.098 46.935.927 4.242 2.514 8.167 4.615 11.707 4.53 6.169 16.612 10.19 24.747 8.412z" fill="#e3e0e4"/><path d="m230.202 450.035c-8.135 1.778-16.228.898-23.387-2.048 8.435 14.212 25.29 22.113 42.32 18.391l30.634-6.696 5.821-21.754z" fill="#c5bec6"/><path d="m324.696 425.041c14.673-24.168-.242-39.69-7.743-47.04-7.158-2.946-15.252-3.826-23.387-2.048l-30.634 6.696 12.564 57.486c.001 0 34.527 9.074 49.2-15.094z" fill="#f7e365"/><path d="m316.953 378.002c19.106 26.841 2.306 52.909-18.966 57.558l-22.49 4.575 4.272 19.548 30.634-6.696c21.272-4.649 34.748-25.663 30.098-46.935-2.871-13.137-11.987-23.293-23.548-28.05z" fill="#f3d332"/><path d="m381.84 349.5c14.552-.224 28.636-17.555 27.098-32.027-.677-6.371-4.034-9.113-8.297-13.253 8.172-3.427 39.184-17.187 36.879-48.714l-9-10.542c-2.993-.865-6.2-1.176-9.489-.826-10.691 1.136-19.04 8.924-21.437 18.805-.495.025-.991.06-1.49.113-6.941.738-12.959 4.111-17.179 9.014-3.821-1.948-8.224-2.861-12.806-2.374-12.586 1.337-21.704 12.625-20.367 25.211.149 1.403.44 2.754.824 4.061-.856-.005-1.718.026-2.588.119-11.385 1.21-19.932 10.562-20.469 21.652 1.373 9.015 9.304 22.024 41.072 15.055 1.273 7.968 13.463 13.764 17.249 13.706z" fill="#bacdea"/><path d="m318.994 321.637c0-2.618-3.119-6.944-6.434-9.154-2.348-.821-4.908-1.154-7.547-.873-9.552 1.015-16.472 9.581-15.457 19.133.227 2.135.848 4.128 1.757 5.941 2.967 3.725 7.453 5.255 9.264 5.255 9.749-.001 18.417-10.553 18.417-20.302z" fill="#bacdea"/><path d="m362.404 327.906c-.301-2.828-3.606-4.109-5.767-2.26-15.442 13.215-30.47 1.126-33.118-4.908-.057 1.17-.026 2.358.102 3.559.005.047.013.093.019.14-1.501-5.664-5.736-10.086-11.079-11.954 1.448 3.164 2.018 6.812 1.293 10.661-1.395 7.405-7.531 13.201-15.003 14.17-2.648.343-5.196.091-7.538-.63 3.155 6.298 9.96 10.305 17.377 9.517 9.454-1.005 16.318-9.409 15.473-18.842 2.688 10.966 13.13 18.532 24.669 17.306 6.508-.692 12.072-4.056 15.759-8.871-1.296-2.787-1.932-5.482-2.187-7.888z" fill="#8aaadc"/><path d="m431.613 257.245c-1.901 9.747-9.269 17.538-18.782 20.05-2.342.618-4.282 2.326-5.078 4.614-1.623 4.662-4.525 8.77-8.331 11.851-2.907 2.353-3.633 6.421-1.785 9.672 1.737 3.055 2.887 6.508 3.282 10.226 1.538 14.472-7.331 28.555-21.883 28.779-3.786.058-11.436-.676-14.445-6.645 1.887 14.796 15.763 25.257 30.78 22.598 12.759-2.259 22.1-13.757 21.692-26.708-.227-7.205-3.267-13.552-7.974-18.124 8.4-3.523 14.435-11.22 15.834-20.256 5.495-.732 10.348-3.222 14.046-6.839l4.303-18.611z" fill="#8aaadc"/><circle cx="347.862" cy="248.002" fill="#bacdea" r="7.503"/><circle cx="324.274" cy="263.529" fill="#bacdea" r="7.503"/><circle cx="379.036" cy="309.97" fill="#8aaadc" r="7.503"/><path d="m383.249 479.426 21.412-64.09-27.347-15.343c-18.99-10.654-43.021-3.897-53.675 15.092-2.125 3.787-3.545 7.775-4.326 11.817-.712 7.621 5.649 18.651 12.911 22.726z" fill="#e3e0e4"/><path d="m335.435 443.967c-7.262-4.074-12.727-10.108-16.122-17.065-3.135 16.226 4.216 33.329 19.419 41.858l27.347 15.343 18.801-12.395z" fill="#c5bec6"/><path d="m422.673 488.051c27.022-8.32 26.183-29.83 25.457-40.306-3.394-6.957-8.86-12.991-16.122-17.065l-27.347-15.343-28.792 51.317c0-.001 19.782 29.716 46.804 21.397z" fill="#e4a4ad"/><path d="m448.13 447.744c-4.386 31.682-36.129 39.03-55.118 28.376l-17.142-9.467-9.791 17.45 27.347 15.343c18.99 10.654 43.021 3.897 53.675-15.092 6.58-11.727 6.511-25.375 1.029-36.61z" fill="#dc8995"/><path d="m75.343 224.048 18.028-65.123-28.113-13.89c-19.521-9.645-43.166-1.64-52.811 17.882-1.923 3.893-3.134 7.95-3.702 12.027-.312 7.647 6.618 18.33 14.083 22.018z" fill="#e3e0e4"/><path d="m25.738 191.14c-7.465-3.689-13.239-9.428-16.993-16.198-2.281 16.368 5.955 33.062 21.584 40.784l28.113 13.89 18.127-13.362z" fill="#c5bec6"/><path d="m115.164 230.596c26.549-9.723 24.585-31.16 23.312-41.584-3.754-6.77-9.528-12.509-16.993-16.198l-28.113-13.89-26.066 52.754s21.31 28.641 47.86 18.918z" fill="#e4a4ad"/><path d="m138.476 189.012c-.568 4.077-1.778 8.134-3.702 12.027-9.646 19.521-28.459 30.325-47.98 20.679l-19.49-10.04-8.864 17.939 28.113 13.89c19.521 9.645 43.166 1.64 52.811-17.882 5.958-12.055 5.175-25.68-.888-36.613z" fill="#dc8995"/><path d="m382.723 211.009c5.473-6.708-2.185-42.015-13.217-56.177-5.045-2.276-10.632-3.513-16.508-3.401-21.419.41-38.657 17.901-38.657 39.418v11.348c-.001.001 62.909 15.52 68.382 8.812z" fill="#e3e0e4"/><path d="m369.505 154.832c2.353 5.136 3.677 10.829 3.677 16.787v27.077c0 1.934-1.568 3.501-3.501 3.501h-55.341v12.506c0 4.144 3.359 7.503 7.503 7.503h63.846c4.144 0 7.503-3.359 7.503-7.503v-23.076c0-16.228-9.756-30.51-23.687-36.795z" fill="#c5bec6"/><path d="m44.311 99.087 55.759-18.006-34.184-60.937-29.538 10.526c-20.51 7.309-31.212 29.862-23.903 50.373 1.475 4.139 3.579 7.87 6.154 11.143 10.527 7.438 18.303 9.541 25.712 6.901z" fill="#e4a4ad"/><path d="m40.808 90.94c-7.409 2.64-15.082 2.92-22.209 1.246 10.183 12.945 27.847 18.595 44.219 12.76l29.538-10.526 4.089-11.103-10.981-8.235z" fill="#dc8995"/><path d="m115.628 75.082c14.829-6.711 32.467-36.722 18.327-58.562-10.362-8.653-24.895-11.762-38.531-6.902l-29.538 10.526 19.578 54.938s15.335 6.711 30.164 0z" fill="#e3e0e4"/><path d="m145.796 33.521c-2.45-6.875-6.618-12.64-11.841-17.002 6.971 20.38-3.713 42.635-24.063 49.887l-24.428 8.675 6.892 19.338 29.538-10.526c20.51-7.309 31.212-29.861 23.902-50.372z" fill="#c5bec6"/><path d="m418.677 133.923c12.71 8.474 45.658 2.77 56.678-16.01 2.355-4.014 2.167-13.22 0-21.844-3.308-6.173-8.301-11.544-14.784-15.348l-27.045-15.869-46.86 43.886c-.001 0 19.3 16.711 32.011 25.185z" fill="#e4a4ad"/><path d="m475.354 96.068c-.821 4.324-2.379 8.584-4.734 12.597-11.019 18.78-35.177 25.072-53.957 14.052l-12.715-7.46-10.757 5.249.428 12.354 27.045 15.869c18.78 11.019 42.938 4.728 53.957-14.052 7.217-12.297 7.008-26.899.733-38.609z" fill="#dc8995"/><path d="m357.243 98.616c8.003 8.648 46.706 16.641 46.706 16.641l29.576-50.406-27.045-15.868c-18.78-11.019-42.937-4.728-53.957 14.052-2.355 4.014-3.913 8.273-4.734 12.597 1.195 9.233 1.451 14.337 9.454 22.984z" fill="#e3e0e4"/><path d="m362.573 90.98c-6.483-3.804-11.476-9.174-14.784-15.348-3.02 15.909 4.019 32.695 18.786 41.359l27.045 15.869 10.329-17.603z" fill="#c5bec6"/><path d="m487.253 268.229c13.905-24.618-1.492-39.663-9.22-46.773-7.248-2.719-15.365-3.344-23.44-1.311l-23.132 5.825c-4.018 1.012-6.455 5.089-5.444 9.108l12.536 49.786s34.795 7.983 48.7-16.635z" fill="#f7e365"/><path d="m478.033 221.456c2.692 4.226 4.552 9.063 5.579 14.347 4.325 22.245-4.121 38.312-24.288 43.389l-20.771 5.671 3.054 12.128c1.012 4.018 5.089 6.455 9.108 5.444l22.405-5.641c21.068-5.305 34.511-26.485 29.439-47.61-3.182-13.255-12.692-23.288-24.526-27.728z" fill="#f3d332"/><path d="m241.673 194.271-105.444-21.057-75.279 153.918c-3.953 8.083-4.071 17.514-.321 25.693l14.635 31.919 9.647 16.391 52.783-12.004c8.759-2.061 103.979-194.86 103.979-194.86z" fill="#f7e365"/><path d="m150.467 363.246c-3.953 8.083-11.325 13.966-20.084 16.027l-48.072 8.917 8.425 15.769 20.473-1.636 34.18-8.044c8.759-2.061 16.131-7.944 20.084-16.027l5.528-11.303-2.926-8.775 9.518-4.704 7.349-15.027-2.819-8.993 9.412-4.486 7.349-15.027-2.967-8.691 9.56-4.789 7.349-15.027-3.337-7.935 9.929-5.544 7.349-15.027-3.159-8.299 9.751-5.181 7.39-15.109-15.14-14.735z" fill="#f3d332"/><path d="m209.988 227.746c-3.718-1.832-8.214-.304-10.047 3.412-1.832 3.717-.305 8.215 3.412 10.047l5.482 2.703 8.122-3.786-1.529-9.694z" fill="#f3d332"/><path d="m215.427 230.427-6.593 13.48 17.937 9.017 6.592-13.48z" fill="#dbb72b"/><path d="m196.046 256.252c-3.718-1.834-8.214-.305-10.047 3.412-1.832 3.717-.305 8.215 3.412 10.047l5.482 2.702 8.647-2.988-2.054-10.492z" fill="#f3d332"/><path d="m194.892 272.414 17.936 9.016 6.593-13.479-17.936-9.017z" fill="#dbb72b"/><path d="m182.103 284.759c-3.717-1.831-8.215-.305-10.047 3.412s-.305 8.215 3.412 10.047l5.482 2.703 6.88-4.292-.287-9.188z" fill="#f3d332"/><path d="m180.95 300.92 17.936 9.017 6.593-13.48-17.936-9.017z" fill="#dbb72b"/><path d="m168.161 313.265c-3.717-1.831-8.214-.304-10.047 3.412-1.832 3.717-.305 8.215 3.412 10.047l5.482 2.703 8.288-2.753-1.696-10.727z" fill="#f3d332"/><path d="m167.008 329.427 17.936 9.017 6.593-13.48-17.936-9.017z" fill="#dbb72b"/><path d="m154.219 341.772c-3.717-1.832-8.214-.305-10.047 3.412-1.832 3.716-.305 8.214 3.412 10.047l5.482 2.703 7.225-4.638-.632-8.841z" fill="#f3d332"/><path d="m153.066 357.933 17.936 9.017 6.593-13.479-17.937-9.017z" fill="#dbb72b"/><path d="m96.98 395.365-21.716-10.621s-2.341 4.787-7.196 14.713c-3.607 7.374-2.257 15.878 2.741 21.756 30.932 7.05 26.171-25.848 26.171-25.848z" fill="#e3e0e4"/><path d="m96.98 395.365-6.973 14.67c-3.66 7.483-11.371 11.656-19.198 11.179.111.131.239.248.354.377l-38.935 79.609c-1.82 3.722-.279 8.215 3.444 10.036 1.061.519 2.184.764 3.291.764 2.775 0 5.443-1.546 6.745-4.208l38.928-79.594c7.889.553 15.69-3.619 19.378-11.16 4.855-9.926 7.196-14.713 7.196-14.713z" fill="#c5bec6"/><path d="m255.617 151.436-87.133-44.172-25.663 52.471 80.791 47.865 24.698-20.785z" fill="#e3e0e4"/><path d="m254.572 150.39-28.959 59.211 21.732 1.255 25.663-52.471z" fill="#c5bec6"/><path d="m273.978 45.95-33.207-2.223-42.062 86.004 3.199 10.555-9.792 2.924-19.333 39.53 19.133 9.358 24.428-21.162z" fill="#c5bec6"/><path d="m250.465 23.908-9.694 19.819 19.134 9.358-39.159 80.066-22.037-3.42-6.593 13.479 19.133 9.358-19.333 39.53 18.875 9.232 77.682-158.833z" fill="#b5adb7"/><path d="m322.01 66.407c-1.106 0-2.229-.246-3.29-.764l-105.094-51.4c-3.723-1.82-5.264-6.314-3.444-10.036 1.821-3.723 6.315-5.262 10.036-3.444l105.094 51.399c3.722 1.82 5.265 6.314 3.444 10.036-1.302 2.662-3.97 4.209-6.746 4.209z" fill="#c5bec6"/><path d="m288.431 173.435c-1.106 0-2.229-.246-3.29-.764l-135.382-66.213c-3.723-1.82-5.264-6.314-3.444-10.036 1.821-3.723 6.315-5.262 10.036-3.444l135.382 66.213c3.722 1.82 5.265 6.314 3.444 10.036-1.302 2.662-3.971 4.208-6.746 4.208z" fill="#c5bec6"/><path d="m222.72 215.515-86.491-42.301 6.592-13.479 86.491 42.301.31 8.82z" fill="#b5adb7"/><path d="m247.537 223.156h15.005v20.074h-15.005z" fill="#a59da7" transform="matrix(.439 -.898 .898 .439 -66.493 359.846)"/></g></svg>