<svg id="Capa_1" enable-background="new 0 0 512 512" height="512" viewBox="0 0 512 512" width="512" xmlns="http://www.w3.org/2000/svg"><g><g><path d="m431.682 491.682h-351.364c-33.137 0-60-26.863-60-60v-351.364c0-33.137 26.863-60 60-60h351.364c33.137 0 60 26.863 60 60v351.364c0 33.137-26.863 60-60 60z" fill="#f6f1f1"/></g><g><path d="m431.682 20.318h-34.487v323.219c0 33.664-27.29 60.954-60.954 60.954h-315.923v27.191c0 33.137 26.863 60 60 60h351.364c33.137 0 60-26.863 60-60v-351.364c0-33.137-26.863-60-60-60z" fill="#e2dfe2"/></g><g><g><path d="m430.728 512h-349.456c-44.813 0-81.272-36.459-81.272-81.272v-349.456c0-44.813 36.459-81.272 81.272-81.272h349.456c44.813 0 81.272 36.459 81.272 81.272v349.456c0 44.813-36.459 81.272-81.272 81.272zm-349.456-471.364c-22.407 0-40.636 18.229-40.636 40.636v349.456c0 22.407 18.229 40.636 40.636 40.636h349.456c22.407 0 40.636-18.229 40.636-40.636v-349.456c0-22.407-18.229-40.636-40.636-40.636z" fill="#86f1a7"/></g></g><g><path d="m478.13 15.318c8.232 12.708 13.03 27.846 13.03 44.115v369.646c0 33.735-27.347 61.082-61.082 61.082h-369.646c-17.643 0-33.958-5.64-47.281-15.189 14.512 22.266 39.618 37.028 68.121 37.028h349.456c44.813 0 81.272-36.458 81.272-81.272v-349.456c0-27.132-13.378-51.185-33.87-65.954z" fill="#78d0b1"/></g><g><g><g><path d="m403.351 419.579h-37.256c-8.256 0-14.949-6.693-14.949-14.949v-107.375c0-11.264-9.163-20.428-20.427-20.428h-123.721c-8.256 0-14.949-6.693-14.949-14.949v-150.386h-22.78c-8.256 0-14.949-6.693-14.949-14.949s6.693-14.949 14.949-14.949h37.73c8.256 0 14.949 6.693 14.949 14.949v150.385h108.771c27.75 0 50.326 22.577 50.326 50.327v92.425h22.307c8.256 0 14.949 6.693 14.949 14.949s-6.693 14.95-14.95 14.95z" fill="#365e7d"/></g></g></g><g><g><g><path d="m208.852 419.076c-61.789 0-112.058-50.269-112.058-112.058s50.269-112.058 112.058-112.058 112.058 50.269 112.058 112.058-50.269 112.058-112.058 112.058zm0-194.218c-45.303 0-82.159 36.857-82.159 82.159s36.857 82.159 82.159 82.159 82.159-36.857 82.159-82.159-36.856-82.159-82.159-82.159z" fill="#407093"/></g></g></g><g><path d="m264.08 404.491h-110.455c16.31 9.277 35.16 14.585 55.228 14.585s38.917-5.308 55.227-14.585z" fill="#365e7d"/></g><g><circle cx="366.008" cy="138.791" fill="#86f1a7" r="56.467"/></g><g><path d="m397.194 91.721v94.141c15.233-10.113 25.281-27.416 25.281-47.071s-10.047-36.957-25.281-47.07z" fill="#78d0b1"/></g><g><path d="m360.748 161.992c-1.922 0-3.844-.733-5.311-2.199l-13.65-13.65c-2.933-2.934-2.933-7.689 0-10.623 2.934-2.932 7.689-2.932 10.623 0l8.339 8.34 26.068-26.069c2.934-2.932 7.689-2.932 10.623 0 2.933 2.934 2.933 7.689 0 10.623l-31.379 31.379c-1.468 1.465-3.391 2.199-5.313 2.199z" fill="#f6f1f1"/></g><path d="m397.194 117.57v11.088l.244-.244c2.933-2.934 2.933-7.688 0-10.623-.078-.079-.163-.147-.244-.221z" fill="#e2dfe2"/><g><path d="m403.351 389.68h-22.306v-4.829c-7.905 8.568-18.232 14.863-29.899 17.796v1.982c0 8.256 6.693 14.949 14.949 14.949h37.256c8.256 0 14.949-6.693 14.949-14.949.001-8.256-6.692-14.949-14.949-14.949z" fill="#2b4d66"/></g></g></svg>