<svg id="Layer_1" enable-background="new 0 0 497 497" height="512" viewBox="0 0 497 497" width="512" xmlns="http://www.w3.org/2000/svg"><g><path d="m248.5.715c-137.243 0-248.5 110.937-248.5 247.785 0 56.629 19.053 108.82 51.114 150.55 1.115 1.451 1.504 3.331 1.029 5.098l-14.754 54.905c-1.169 4.352 2.81 8.337 7.164 7.174l57.059-15.245c1.669-.446 3.443-.122 4.861.865 40.257 28.008 89.216 44.438 142.027 44.438 137.243 0 248.5-110.937 248.5-247.785s-111.257-247.785-248.5-247.785z" fill="#fff6db"/><g><path d="m248.5.715c-5.038 0-10.036.167-15 .462 130.256 7.736 233.5 115.499 233.5 247.323 0 131.865-103.307 239.654-233.62 247.33 5.002.299 10.043.455 15.12.455 137.243 0 248.5-110.937 248.5-247.785s-111.257-247.785-248.5-247.785z" fill="#ffeebd"/></g><path d="m391.29 199.075h-93.223v-92.954h-99.134v92.954h-93.223v98.85h93.223v92.954h99.134v-92.954h93.223z" fill="#ff5e57"/><g fill="#f7372f"><path d="m268.067 106.121h30v92.955h-30z"/><path d="m361.29 199.075h30v98.849h-30z"/><path d="m268.067 297.925h30v92.955h-30z"/></g></g></svg>