<?xml version="1.0" encoding="iso-8859-1"?>
<!-- Generator: Adobe Illustrator 19.0.0, SVG Export Plug-In . SVG Version: 6.00 Build 0)  -->
<svg version="1.1" id="Layer_1" xmlns="http://www.w3.org/2000/svg" xmlns:xlink="http://www.w3.org/1999/xlink" x="0px" y="0px"
	 viewBox="0 0 512 512" style="enable-background:new 0 0 512 512;" xml:space="preserve">
<path style="fill:#099DD1;" d="M345.251,153.55h-18.11c-3.992,0-7.49-2.589-8.756-6.374c-2.267-6.788-5.016-13.37-8.215-19.686
	c-1.818-3.59-1.174-7.927,1.68-10.769l12.702-12.622c3.624-3.59,3.624-9.458,0-13.059l-7.755-7.709l-22.804-22.655l-13.519-13.439
	c-3.59-3.567-9.389-3.567-12.978,0l-12.852,12.771c-2.83,2.807-7.122,3.44-10.677,1.657c-6.386-3.199-13.036-5.948-19.916-8.215
	c-3.797-1.254-6.409-4.752-6.409-8.767V26.815c0-5.086-4.119-9.205-9.205-9.205H146.03c-5.086,0-9.205,4.119-9.205,9.205v17.868
	c0,4.004-2.6,7.513-6.409,8.767c-6.88,2.267-13.531,5.016-19.916,8.215c-3.567,1.783-7.858,1.151-10.689-1.657l-12.84-12.771
	c-3.59-3.567-9.389-3.567-12.978,0L29.915,91.04c-3.624,3.601-3.624,9.469,0,13.059l12.691,12.622
	c2.865,2.842,3.498,7.18,1.68,10.769c-3.187,6.317-5.948,12.898-8.215,19.686c-1.266,3.785-4.752,6.374-8.756,6.374H9.205
	c-5.086,0-9.205,4.119-9.205,9.205v61.878c0,5.086,4.119,9.205,9.205,9.205h18.11c3.992,0,7.49,2.589,8.756,6.374
	c2.267,6.8,5.028,13.37,8.215,19.686c1.818,3.59,1.185,7.939-1.68,10.769l-12.691,12.622c-3.624,3.601-3.624,9.458,0,13.059
	l44.078,43.802c3.59,3.567,9.389,3.567,12.978,0l12.84-12.76c2.83-2.807,7.122-3.44,10.689-1.657
	c6.386,3.199,13.047,5.948,19.916,8.215c3.808,1.254,6.409,4.763,6.409,8.767v17.868c0,5.086,4.119,9.205,9.205,9.205h62.407
	c5.086,0,9.205-4.119,9.205-9.205v-24.68c2.83-0.794,5.638-1.68,8.399-2.635c6.19-1.99,12.265-4.671,18.064-7.605
	c1.944-0.978,3.854-1.991,5.741-3.038l4.798,4.763l12.852,12.76c3.59,3.567,9.389,3.567,12.978,0l13.209-13.116l19.64-19.525
	l11.23-11.161c3.624-3.601,3.624-9.458,0-13.059l-12.702-12.622l-4.855-4.821c1.059-1.875,2.071-3.774,3.061-5.695
	c2.876-6.696,6.063-13.082,8.365-20.031c0.69-2.071,1.335-4.165,1.933-6.282h24.898c5.086,0,9.205-4.119,9.205-9.205v-61.878
	C354.456,157.669,350.337,153.55,345.251,153.55z M177.234,259.575c-36.508,0-66.089-29.501-66.089-65.87
	c0-36.393,29.581-65.882,66.089-65.882c36.496,0,66.077,29.489,66.077,65.882C243.311,230.075,213.73,259.575,177.234,259.575z"/>
<path style="fill:#0B8DCE;" d="M331.272,176.067c-14.279,0-25.853,11.586-25.853,25.865v3.601l-2.704-2.692
	c-5.039-5.016-11.632-7.513-18.237-7.513c-6.593,0-13.186,2.497-18.225,7.513l-47.449,47.15c-4.89,4.855-7.64,11.46-7.64,18.34
	c0,6.892,2.75,13.496,7.64,18.352l2.313,2.278h-3.475c-14.279,0-25.853,11.575-25.853,25.853v54.974h16.649
	c5.086,0,9.205-4.119,9.205-9.205v-24.68c2.83-0.794,5.638-1.68,8.399-2.635c6.19-1.99,12.265-4.671,18.064-7.605
	c1.944-0.978,3.854-1.991,5.741-3.038l4.798,4.763l12.852,12.76c3.59,3.567,9.389,3.567,12.978,0l13.209-13.116l19.64-19.525
	l11.23-11.161c3.624-3.601,3.624-9.458,0-13.059l-12.702-12.622l-4.855-4.821c1.059-1.875,2.071-3.774,3.061-5.695
	c2.876-6.696,6.064-13.082,8.365-20.031c0.69-2.071,1.335-4.165,1.933-6.282h24.898c5.086,0,9.205-4.119,9.205-9.205v-48.566
	L331.272,176.067L331.272,176.067z"/>
<path style="fill:#00ABE0;" d="M512,372.289v-48.262c0-5.083-4.121-9.205-9.205-9.205H490.43c-3.912,0-7.415-2.467-8.683-6.168
	c-1.722-5.034-3.767-9.92-6.106-14.635c-1.755-3.535-1.026-7.796,1.774-10.576l8.637-8.577c3.624-3.599,3.624-9.461,0.001-13.061
	l-5.333-5.298l-18.935-18.807l-10.125-10.066c-3.589-3.568-9.385-3.569-12.976-0.003l-8.785,8.725
	c-2.771,2.751-6.983,3.471-10.487,1.751c-4.777-2.344-9.727-4.392-14.826-6.115c-3.719-1.256-6.202-4.769-6.202-8.695v-12.163
	c0-5.083-4.121-9.205-9.205-9.205h-48.704c-5.083,0-9.205,4.121-9.205,9.205v12.162c0,3.926-2.484,7.44-6.204,8.695
	c-5.104,1.724-10.056,3.772-14.833,6.115c-3.506,1.72-7.719,1-10.49-1.753l-8.777-8.72c-3.59-3.567-9.386-3.567-12.976,0
	l-34.395,34.175c-3.622,3.599-3.622,9.459,0,13.059l8.633,8.579c2.798,2.781,3.527,7.042,1.772,10.575
	c-2.34,4.715-4.385,9.603-6.107,14.636c-1.267,3.701-4.771,6.168-8.683,6.168h-12.365c-5.083,0-9.205,4.121-9.205,9.205v48.262
	c0,5.083,4.121,9.205,9.205,9.205h12.364c3.912,0,7.417,2.467,8.683,6.168c1.724,5.036,3.767,9.921,6.107,14.635
	c1.755,3.535,1.027,7.795-1.772,10.576l-8.633,8.579c-3.622,3.599-3.622,9.459,0,13.059l34.395,34.175
	c3.59,3.567,9.386,3.567,12.976,0l8.766-8.711c2.757-2.74,6.959-3.499,10.446-1.785c4.791,2.354,9.756,4.408,14.875,6.139
	c3.741,1.266,6.214,4.834,6.214,8.783v12.072c0,5.083,4.121,9.205,9.205,9.205h48.701c5.083,0,9.205-4.121,9.205-9.205v-12.078
	c0-3.946,2.471-7.512,6.21-8.778c5.115-1.73,10.08-3.784,14.87-6.139c3.487-1.714,7.689-0.955,10.447,1.783l8.775,8.716
	c3.59,3.566,9.384,3.564,12.974-0.001l9.872-9.806l16.309-16.212l8.213-8.159c3.623-3.6,3.623-9.461-0.001-13.061l-8.636-8.577
	c-2.8-2.781-3.528-7.043-1.773-10.577c2.34-4.714,4.384-9.598,6.107-14.634c1.267-3.701,4.771-6.168,8.683-6.168h12.364
	C507.879,381.493,512,377.372,512,372.289z M364.827,402.869c-30.315,0-54.881-24.498-54.881-54.705
	c0-30.217,24.566-54.705,54.881-54.705c30.305,0,54.872,24.488,54.872,54.705C419.698,378.371,395.132,402.869,364.827,402.869z"/>
<g>
</g>
<g>
</g>
<g>
</g>
<g>
</g>
<g>
</g>
<g>
</g>
<g>
</g>
<g>
</g>
<g>
</g>
<g>
</g>
<g>
</g>
<g>
</g>
<g>
</g>
<g>
</g>
<g>
</g>
</svg>
