<svg height="512pt" viewBox="-38 0 512 512" width="512pt" xmlns="http://www.w3.org/2000/svg"><path d="m436.53125 54.875v402.25c0 30.308594-24.570312 54.875-54.875 54.875h-286.289062c-30.304688 0-54.875-24.566406-54.875-54.875v-402.25c0-30.308594 24.570312-54.875 54.875-54.875h286.289062c30.304688 0 54.875 24.566406 54.875 54.875zm0 0" fill="#49d8e4"/><path d="m436.53125 54.875v402.25c0 30.308594-24.570312 54.875-54.875 54.875h-250.238281c-30.304688 0-54.871094-24.566406-54.871094-54.875v-402.25c0-30.308594 24.566406-54.875 54.871094-54.875h250.238281c30.304688 0 54.875 24.566406 54.875 54.875zm0 0" fill="#6ce7f3"/><g fill="#edc56b"><path d="m84.636719 111.792969c0 15.582031-12.625 28.214843-28.207031 28.214843h-28.214844c-7.785156 0-14.847656-3.152343-19.949219-8.265624-5.109375-5.109376-8.265625-12.152344-8.265625-19.949219 0-3.699219.710938-7.21875 2.007812-10.449219 4.148438-10.40625 14.316407-17.765625 26.207032-17.765625h28.214844c7.785156 0 14.839843 3.15625 19.949218 8.265625 2.6875 2.6875 4.828125 5.917969 6.25 9.5 1.296875 3.230469 2.007813 6.75 2.007813 10.449219zm0 0"/><path d="m84.636719 304.066406c0 15.578125-12.625 28.214844-28.207031 28.214844h-28.214844c-7.785156 0-14.847656-3.15625-19.949219-8.265625-5.109375-5.101563-8.265625-12.164063-8.265625-19.949219 0-3.691406.710938-7.222656 2.007812-10.453125 4.148438-10.40625 14.316407-17.761719 26.207032-17.761719h28.214844c7.785156 0 14.839843 3.152344 19.949218 8.265626 2.6875 2.683593 4.828125 5.902343 6.25 9.496093 1.296875 3.230469 2.007813 6.761719 2.007813 10.453125zm0 0"/><path d="m84.636719 207.933594c0 15.582031-12.625 28.214844-28.207031 28.214844h-28.214844c-7.785156 0-14.847656-3.152344-19.949219-8.265626-5.109375-5.109374-8.265625-12.152343-8.265625-19.949218 0-3.699219.710938-7.21875 2.007812-10.449219 4.148438-10.40625 14.316407-17.765625 26.207032-17.765625h28.214844c7.785156 0 14.839843 3.15625 19.949218 8.265625 2.6875 2.6875 4.828125 5.917969 6.25 9.5 1.296875 3.230469 2.007813 6.75 2.007813 10.449219zm0 0"/><path d="m84.636719 400.207031c0 15.578125-12.625 28.214844-28.207031 28.214844h-28.214844c-7.785156 0-14.847656-3.15625-19.949219-8.265625-5.109375-5.101562-8.265625-12.164062-8.265625-19.949219 0-3.691406.710938-7.222656 2.007812-10.453125 4.148438-10.40625 14.316407-17.761718 26.207032-17.761718h28.214844c7.785156 0 14.839843 3.152343 19.949218 8.265624 2.6875 2.683594 4.828125 5.902344 6.25 9.496094 1.296875 3.230469 2.007813 6.761719 2.007813 10.453125zm0 0"/></g><path d="m82.628906 101.34375c-4.148437 10.410156-14.304687 17.765625-26.199218 17.765625h-28.214844c-7.785156 0-14.847656-3.15625-19.949219-8.265625-2.683594-2.6875-4.839844-5.914062-6.257813-9.5 4.148438-10.40625 14.316407-17.765625 26.207032-17.765625h28.214844c7.785156 0 14.839843 3.15625 19.949218 8.265625 2.6875 2.6875 4.828125 5.917969 6.25 9.5zm0 0" fill="#ffd97b"/><path d="m82.628906 293.613281c-4.148437 10.410157-14.304687 17.765625-26.199218 17.765625h-28.214844c-7.785156 0-14.847656-3.15625-19.949219-8.265625-2.683594-2.683593-4.839844-5.902343-6.257813-9.5 4.148438-10.40625 14.316407-17.761719 26.207032-17.761719h28.214844c7.785156 0 14.839843 3.152344 19.949218 8.265626 2.6875 2.683593 4.828125 5.902343 6.25 9.496093zm0 0" fill="#ffd97b"/><path d="m82.628906 197.484375c-4.148437 10.410156-14.304687 17.753906-26.199218 17.753906h-28.214844c-7.785156 0-14.847656-3.15625-19.949219-8.253906-2.683594-2.6875-4.839844-5.914063-6.257813-9.5 4.148438-10.40625 14.316407-17.765625 26.207032-17.765625h28.214844c7.785156 0 14.839843 3.15625 19.949218 8.265625 2.6875 2.6875 4.828125 5.917969 6.25 9.5zm0 0" fill="#ffd97b"/><path d="m82.628906 389.753906c-4.148437 10.410156-14.304687 17.757813-26.199218 17.757813h-28.214844c-7.785156 0-14.847656-3.160157-19.949219-8.257813-2.683594-2.683594-4.839844-5.914062-6.257813-9.5 4.148438-10.40625 14.316407-17.761718 26.207032-17.761718h28.214844c7.785156 0 14.839843 3.152343 19.949218 8.265624 2.6875 2.683594 4.828125 5.902344 6.25 9.496094zm0 0" fill="#ffd97b"/><path d="m287.671875 281.175781c25.335937-14.054687 42.484375-41.070312 42.484375-72.09375 0-45.507812-36.886719-82.394531-82.390625-82.394531-45.507813 0-82.394531 36.886719-82.394531 82.394531 0 31.023438 17.152344 58.039063 42.484375 72.09375-25.332031 14.050781-42.484375 41.066407-42.484375 72.09375h164.785156c0-31.027343-17.148438-58.042969-42.484375-72.09375zm0 0" fill="#49d8e4"/><path d="m322.765625 407.414062h-150.003906c-4.328125 0-7.839844-3.507812-7.839844-7.835937s3.511719-7.835937 7.839844-7.835937h150.007812c4.328125 0 7.835938 3.507812 7.835938 7.835937s-3.507813 7.835937-7.839844 7.835937zm0 0" fill="#49d8e4"/></svg>